<svg width="56" height="56" viewBox="0 0 56 56" fill="none" xmlns="http://www.w3.org/2000/svg">
<g clip-path="url(#clip0_6_459)">
<path d="M10.0371 22.8893C9.85382 22.5216 9.56387 22.2183 9.20394 21.9906C8.82845 21.7606 8.38519 21.5996 7.87862 21.504C7.36315 21.4107 6.7677 21.3685 6.07783 21.3618L2.89284 21.364C2.56179 21.3685 2.2374 21.6262 2.15964 21.9462L0.0166873 31.28C-0.0610766 31.5955 0.146664 31.8599 0.477716 31.8599H2.003C2.33405 31.8599 2.66177 31.6033 2.73509 31.28L3.25833 29.0138C3.32832 28.6983 3.65493 28.435 3.98931 28.435H4.4259C6.29112 28.4328 7.73531 28.0517 8.7729 27.2885C9.81605 26.5242 10.3304 25.5144 10.3304 24.2635C10.3293 23.7158 10.2393 23.2559 10.0371 22.8893ZM6.74771 25.9388C6.28668 26.2765 5.64568 26.4454 4.81916 26.4454H4.4459C4.11373 26.4454 3.91044 26.1832 3.98265 25.8632L4.44145 23.8814C4.50589 23.5636 4.84027 23.3004 5.16799 23.3026L5.6679 23.2992C6.25113 23.2992 6.69661 23.4003 6.99433 23.5959C7.28872 23.7892 7.43647 24.0969 7.43425 24.5046C7.44314 25.1245 7.20651 25.6011 6.74771 25.9388Z" fill="#26210F"/>
<path d="M53.5182 22.0925L53.4227 22.1214L53.295 22.1391L53.1383 22.1147L53.0583 22.0369L53.0217 21.9147L53.0194 21.7314V21.0527H53.5294V20.8427H53.0194V20.4194H52.7673V20.8427H52.5962V21.0527H52.7673V21.8425L52.885 22.2336L53.2316 22.358L53.3772 22.3458L53.5316 22.3158V22.0925H53.5182Z" fill="#26210F"/>
<path d="M55.8834 20.9508L55.519 20.8008L55.2502 20.8552L54.9769 21.0396L54.818 20.863L54.5603 20.8019L54.3126 20.8563L54.0782 21.0074V20.843H53.8304V22.3261H54.0771V21.2185L54.2848 21.0896L54.4914 21.0385L54.6603 21.0685L54.7436 21.1541L54.7803 21.2962L54.7925 21.4795V22.3272H55.0402V21.3785L55.0358 21.2996L55.0313 21.2274L55.2424 21.0929L55.4513 21.0407L55.6146 21.0707L55.7034 21.1563L55.7345 21.2996L55.7512 21.4807V22.3283H56.0001V21.3651L55.8834 20.9508Z" fill="#26210F"/>
<path d="M17.3925 24.2234C16.817 23.899 15.9083 23.7368 14.6663 23.7368C14.052 23.7368 13.4398 23.7846 12.8211 23.8801C12.3645 23.9501 12.32 23.9634 12.039 24.0245C11.4591 24.1512 11.368 24.73 11.368 24.73L11.1814 25.4976C11.0758 25.9875 11.358 25.9686 11.4758 25.9275C11.729 25.852 11.8701 25.7742 12.3878 25.6587C12.8822 25.5465 13.4032 25.4621 13.8164 25.4676C14.4263 25.4676 14.8929 25.5321 15.204 25.6631C15.5106 25.7964 15.6639 26.0253 15.6639 26.3563L15.6372 26.5719L15.4173 26.7074C14.5519 26.7618 13.9264 26.8418 13.1677 26.9518C12.4256 27.0551 11.7746 27.2362 11.2336 27.4839C10.6526 27.7394 10.2215 28.0827 9.92048 28.5193C9.62942 28.9581 9.48389 29.4902 9.48389 30.1146C9.48389 30.7022 9.69496 31.1877 10.1049 31.5632C10.517 31.932 11.0614 32.112 11.7124 32.112C12.1245 32.1098 12.4434 32.0776 12.67 32.0231L13.4087 31.7687L14.0342 31.4221L14.6096 31.0422L14.6174 31.0533L14.5596 31.2977L14.5563 31.3077V31.3099C14.4941 31.6076 14.6741 31.852 14.964 31.8809L14.9696 31.8876H14.9962H16.166H16.386L16.406 31.8787C16.7104 31.8431 16.9959 31.5987 17.0625 31.3077L18.1746 26.4941L18.2323 26.1019L18.259 25.7342C18.2634 25.0521 17.969 24.5467 17.3925 24.2234ZM14.9329 29.6358L14.6952 29.949L14.0953 30.259C13.8131 30.3734 13.5454 30.4312 13.2977 30.4312C12.9222 30.4312 12.6278 30.3767 12.4289 30.2657L12.1345 29.6935C12.1345 29.3836 12.2056 29.1381 12.3578 28.9492L13.0044 28.5093C13.281 28.416 13.6187 28.3371 14.0097 28.2827C14.3586 28.2393 15.0473 28.1605 15.1373 28.1582L15.2429 28.3438C15.2218 28.4493 15.0262 29.2669 14.9329 29.6358Z" fill="#26210F"/>
<path d="M45.0963 24.2304C44.5175 23.906 43.6099 23.7427 42.3713 23.7427C41.7569 23.7427 41.1437 23.7904 40.5271 23.8893C40.0695 23.956 40.0239 23.9704 39.7417 24.0304C39.1629 24.1559 39.073 24.7369 39.073 24.7369L38.8863 25.5035C38.7819 25.9934 39.0574 25.9712 39.1863 25.9334C39.4407 25.8579 39.5773 25.7834 40.0906 25.6634C40.5827 25.5524 41.1082 25.4701 41.5225 25.4724C42.1302 25.4724 42.5968 25.5379 42.9067 25.669C43.2156 25.8023 43.3666 26.0334 43.3666 26.3611L43.3433 26.5755L43.1256 26.7144C42.2513 26.7666 41.6247 26.8466 40.8738 26.9565C40.1339 27.0599 39.4807 27.2398 38.9385 27.4887C38.3598 27.7453 37.9232 28.0886 37.6254 28.5263C37.3311 28.9651 37.1877 29.4961 37.1877 30.1149C37.1877 30.707 37.3966 31.1925 37.8121 31.5657C38.2264 31.9334 38.7652 32.1178 39.4162 32.1178C39.8262 32.1134 40.145 32.0867 40.3727 32.0279L41.1093 31.7768L41.7403 31.4302L42.3113 31.0458L42.3213 31.058L42.2691 31.3047L42.2635 31.3091L42.2657 31.3135C42.1969 31.6113 42.3779 31.8579 42.6712 31.8846L42.6734 31.8901H42.7001C42.8923 31.8901 43.5566 31.8901 43.8732 31.8901H44.0887L44.1121 31.8823C44.4131 31.8457 44.6975 31.6013 44.7608 31.3069L45.8762 26.5L45.9351 26.1056L45.9673 25.7368C45.9684 25.0569 45.6773 24.5536 45.0963 24.2304ZM42.6423 29.6427L42.3946 29.9593L41.8003 30.2671C41.5181 30.3804 41.2492 30.4393 41.006 30.4393C40.6182 30.4393 40.3316 30.3837 40.1383 30.2726L39.8406 29.7027C39.8406 29.3917 39.9128 29.1484 40.0583 28.9562C40.2061 28.7751 40.4316 28.6263 40.7116 28.5174C40.9848 28.4241 41.3226 28.3485 41.7158 28.2919C42.0624 28.2485 42.749 28.1674 42.8378 28.1663L42.9456 28.3519C42.9301 28.4574 42.7334 29.2717 42.6423 29.6427Z" fill="#26210F"/>
<path d="M37.7366 22.9236C37.5455 22.5537 37.2589 22.2549 36.8967 22.0216C36.5257 21.7905 36.0857 21.6283 35.5714 21.535C35.0659 21.445 34.4627 21.3961 33.7773 21.395L30.5878 21.3972C30.2557 21.4028 29.9368 21.6605 29.8602 21.9771L27.715 31.3155C27.6373 31.6321 27.8505 31.8943 28.1749 31.8943L29.7024 31.892C30.0268 31.8943 30.359 31.6343 30.4356 31.3144L30.9522 29.047C31.0278 28.7315 31.3555 28.466 31.6854 28.4682H32.122C33.9895 28.4682 35.437 28.0838 36.479 27.3228C37.5088 26.553 38.0298 25.5454 38.0298 24.2934C38.0243 23.7479 37.9299 23.2869 37.7366 22.9236ZM34.4471 25.9775C33.9872 26.3086 33.3451 26.4774 32.523 26.4774H32.1431C31.8154 26.4808 31.6032 26.2142 31.6765 25.8964L32.1387 23.9179C32.2064 23.6013 32.5375 23.3358 32.8674 23.3391L33.3618 23.3358C33.9483 23.3391 34.3883 23.4358 34.6882 23.6313C34.9871 23.8268 35.1281 24.1334 35.1315 24.54C35.1348 25.1599 34.9048 25.6376 34.4471 25.9775Z" fill="#26210F"/>
<path d="M50.8153 22.0518C50.8853 21.733 50.6853 21.4741 50.3576 21.4786H48.9912C48.7112 21.4786 48.4591 21.6863 48.3358 21.9418L48.2602 22.0596L48.1913 22.3617L46.2817 31.0424L46.2195 31.309L46.2217 31.3157C46.1584 31.6012 46.3339 31.8167 46.605 31.8578L46.6283 31.89H48.0469C48.3246 31.89 48.5857 31.679 48.7046 31.419L48.7779 31.3079L50.8198 22.0529L50.8153 22.0518Z" fill="#26210F"/>
<path d="M27.7573 23.8536C27.3963 23.8581 25.9287 23.8536 25.9287 23.8536C25.5999 23.8536 25.1778 24.1192 24.9689 24.4358C24.9689 24.4358 22.7849 28.184 22.5727 28.5606L22.3194 28.5572L21.6395 24.4613C21.564 24.1391 21.2274 23.8636 20.8086 23.8636L19.4421 23.8659C19.1133 23.8659 18.9111 24.128 18.9855 24.448C18.9855 24.448 20.0231 30.3525 20.2309 31.7422C20.3275 32.5088 20.2187 32.6454 20.2187 32.6454L18.8678 34.9983C18.6678 35.3183 18.7756 35.5793 19.1033 35.5793L20.683 35.5771C21.0118 35.5771 21.444 35.3183 21.6395 34.9972L27.7162 24.719C27.7162 24.7202 28.3005 23.8414 27.7573 23.8536Z" fill="#26210F"/>
</g>
<defs>
<clipPath id="clip0_6_459">
<rect width="56" height="56" fill="white"/>
</clipPath>
</defs>
</svg>
