<svg width="38" height="38" viewBox="0 0 38 38" fill="none" xmlns="http://www.w3.org/2000/svg">
<path d="M15.5326 13.0542L13.6254 24.9221H16.6737L18.5797 13.0542H15.5326ZM24.7274 17.8885C23.6621 17.3625 23.0091 17.0074 23.0091 16.4694C23.0221 15.9802 23.5613 15.479 24.7654 15.479C25.7558 15.4542 26.4837 15.6869 27.0359 15.9185L27.3126 16.042L27.727 13.5589C27.1249 13.3261 26.1702 13.0697 24.991 13.0697C21.9807 13.0697 19.861 14.6348 19.8479 16.8733C19.823 18.5252 21.3654 19.4418 22.5198 19.9917C23.699 20.5558 24.1004 20.9215 24.1004 21.4227C24.0874 22.1921 23.1469 22.5472 22.2693 22.5472C21.0534 22.5472 20.4002 22.3643 19.4087 21.9355L19.0073 21.7527L18.581 24.3332C19.2971 24.6515 20.614 24.9316 21.9808 24.946C25.18 24.946 27.2616 23.4045 27.2878 21.0189C27.2982 19.7102 26.4849 18.7079 24.7274 17.8885ZM35.5419 13.0909H33.1835C32.4567 13.0909 31.9045 13.3 31.5899 14.0457L27.0619 24.9221H30.261L31.1421 22.5673H34.7213L35.1784 24.9316H38L35.5419 13.0909ZM32.0293 20.191C32.091 20.1969 33.2572 16.347 33.2572 16.347L34.1858 20.191C34.1858 20.191 32.6314 20.191 32.0293 20.191ZM11.0783 13.0542L8.09168 21.1174L7.76634 19.5272C7.21411 17.6925 5.4828 15.6988 3.55066 14.7084L6.28549 24.9103H9.5108L14.3036 13.0555H11.0783V13.0542Z" fill="#26210F"/>
<path d="M6.76166 14.5854C6.52891 13.6805 5.78666 13.0702 4.77859 13.0571H0.0487106L0 13.2767C3.68963 14.1863 6.78653 16.9852 7.79122 19.6179L6.76166 14.5854Z" fill="#26210F"/>
</svg>
