<svg width="47" height="48" viewBox="0 0 47 48" fill="none" xmlns="http://www.w3.org/2000/svg">
<g clip-path="url(#clip0_128_7352)">
<path d="M30.2088 10.6638C27.0099 8.87949 23.3432 8.09582 19.6885 8.41538C16.0337 8.73494 12.5613 10.1428 9.72565 12.4548C6.89001 14.7668 4.82329 17.8751 3.79602 21.3729C2.76874 24.8707 2.82876 28.595 3.96823 32.0584C4.02951 32.0732 4.08914 32.0913 4.15042 32.1111C2.99301 28.6548 2.92238 24.9305 3.9479 21.4334C4.97342 17.9363 7.04652 14.832 9.89157 12.5333C12.7366 10.2345 16.2188 8.85029 19.8753 8.56455C23.5317 8.2788 27.189 9.1051 30.3611 10.9336C30.3131 10.8431 30.2568 10.7543 30.2088 10.6638Z" fill="#26210F"/>
<path d="M38.2947 32.5634C37.4374 34.9232 36.0909 37.0781 34.3424 38.8887C32.5938 40.6993 30.4821 42.1254 28.1438 43.0746C25.8054 44.0239 23.2925 44.4752 20.7675 44.3994C18.2425 44.3237 15.7616 43.7225 13.4852 42.6348C13.515 42.7039 13.5415 42.7746 13.568 42.8437C15.8599 43.9108 18.3506 44.4918 20.8812 44.5498C23.4118 44.6078 25.9268 44.1415 28.2658 43.1806C30.6048 42.2198 32.7166 40.7854 34.4664 38.969C36.2162 37.1526 37.5657 34.994 38.4289 32.6308C38.3891 32.6078 38.3427 32.5831 38.2947 32.5634Z" fill="#26210F"/>
<path d="M13.8248 45.6399C13.8035 45.763 13.7759 45.8848 13.742 46.0051C13.5515 46.7008 13.154 47.3555 12.518 47.691C12.135 47.8779 11.7027 47.9407 11.2819 47.8704C10.8611 47.8002 10.4731 47.6005 10.1727 47.2996C10.3373 47.442 10.5508 47.5162 10.769 47.5068C10.9413 47.4957 11.1044 47.4254 11.2303 47.3081C11.3563 47.1908 11.4374 47.0337 11.4596 46.8637C11.4591 46.7225 11.4281 46.5831 11.3686 46.4548C11.3092 46.3265 11.2228 46.2124 11.1151 46.1202C10.4907 45.51 9.53503 45.4146 8.66051 45.4047C7.78599 45.3948 6.8535 45.4211 6.10486 44.9721C5.62791 44.6863 5.27653 44.2329 5.12038 43.7019C4.96423 43.1708 5.01471 42.6009 5.26181 42.1051C5.01854 42.3509 4.73935 42.5588 4.43367 42.7219C4.28626 42.8009 4.10241 42.8667 3.95831 42.7729C4.36079 42.5756 4.59267 42.1314 4.72186 41.6972C4.95024 40.9083 4.94218 40.0703 4.69867 39.2859C4.77652 39.503 5.70238 41.8419 9.22862 43.5C7.49448 42.2351 6.1148 40.4422 4.84774 38.7151C5.2585 39.2431 5.82826 39.7694 6.51396 39.8204C7.29407 39.8796 8.0775 39.7234 8.86258 39.7086C9.64766 39.6938 10.489 39.8566 11.029 40.4208C10.4906 40.3005 9.92807 40.3453 9.41578 40.5491C8.90305 40.7866 8.47714 41.1763 8.19675 41.6643C8.57426 41.353 9.01808 41.131 9.49468 41.015C9.97127 40.899 10.4682 40.8921 10.9478 40.9949C11.4416 41.1078 11.9068 41.3201 12.3147 41.6186C12.7226 41.917 13.0646 42.2954 13.3196 42.7302C13.8262 43.6113 14.005 44.6412 13.8248 45.6399Z" fill="#26210F"/>
<path d="M41.2627 15.2595L41.3008 15.2924C40.7576 15.929 40.5671 16.9241 40.4164 17.7449C39.6228 15.5134 38.1949 13.5583 36.3055 12.1162L36.2939 12.1277C36.2781 12.1126 36.2632 12.0967 36.2492 12.08L36.2343 12.0932C37.7332 13.9025 39.0499 15.827 40.0238 17.9637C39.9857 17.8962 39.946 17.8304 39.9062 17.7646C39.2951 16.7777 38.4736 15.9553 37.6322 15.1427C37.2855 14.7832 36.8836 14.4806 36.4413 14.2463C35.9931 14.015 35.4745 13.9564 34.9854 14.0818C34.7512 14.1442 34.5387 14.2692 34.371 14.4432C34.2034 14.6172 34.0871 14.8336 34.0347 15.0687L33.9834 15.0589C33.785 14.5677 33.7616 14.024 33.917 13.5178C34.0725 13.0116 34.3974 12.5734 34.838 12.2758C33.6091 12.4781 32.2393 12.3695 31.2919 11.5685C30.487 10.8892 30.1126 9.80685 30.0961 8.76072C30.0921 8.4414 30.1148 8.1223 30.164 7.80671C30.2851 7.08762 30.4782 6.38232 30.7404 5.7013C31.1014 4.71439 31.5188 3.74721 31.7491 2.72412C31.8865 2.11552 31.9147 1.39508 31.5105 0.937807L31.5486 0.906555C32.3907 1.15063 33.1539 1.60924 33.7623 2.23683C34.3707 2.86442 34.8032 3.63916 35.0169 4.48411C35.1825 5.1733 35.1825 5.88717 35.2206 6.59445C35.2587 7.30174 35.3018 8.01725 35.5419 8.68506C35.7821 9.35287 36.2045 9.94173 36.8289 10.2493C36.492 9.56333 36.3229 8.80809 36.3353 8.04497C36.3476 7.28186 36.5412 6.53241 36.9001 5.85756C36.8548 6.42127 37.0179 6.98204 37.3589 7.43497C37.7481 7.98435 38.2947 8.40214 38.8197 8.82323C39.3448 9.24431 39.8731 9.695 40.2011 10.2839C40.3476 10.5276 40.4422 10.7986 40.4793 11.08C40.5163 11.3615 40.4949 11.6475 40.4164 11.9205C40.8694 11.5877 41.4285 11.4293 41.9901 11.4747C42.5517 11.5201 43.0777 11.7661 43.4706 12.1672C42.9358 12.1888 42.4122 12.3262 41.9365 12.5697C41.4607 12.8131 41.0442 13.1569 40.7162 13.5768C40.0802 14.3993 40.0371 15.85 40.2557 16.8666C40.2583 16.4626 40.3259 16.0617 40.4561 15.679C40.5522 15.3878 40.9514 15.299 41.2627 15.2595Z" fill="#26210F"/>
<path d="M40.2359 7.91857C40.3377 7.91532 40.4382 7.94223 40.5246 7.99588C40.611 8.04953 40.6794 8.12749 40.721 8.21985C40.7626 8.3122 40.7756 8.41476 40.7584 8.51449C40.7412 8.61421 40.6944 8.70659 40.6242 8.77986C40.5539 8.85314 40.4633 8.90399 40.3638 8.92595C40.2644 8.94792 40.1606 8.94 40.0656 8.9032C39.9707 8.8664 39.889 8.8024 39.8308 8.71932C39.7727 8.63625 39.7407 8.53787 39.739 8.43669C39.7363 8.30272 39.787 8.17312 39.8801 8.07609C39.9731 7.97906 40.101 7.92244 40.2359 7.91857Z" fill="#26210F"/>
<path d="M39.5883 7.06324C39.6093 7.06191 39.6303 7.06481 39.6501 7.07177C39.67 7.07873 39.6882 7.08961 39.7037 7.10376C39.7191 7.1179 39.7316 7.13501 39.7402 7.15405C39.7488 7.1731 39.7535 7.19369 39.7539 7.21457C39.7541 7.24438 39.7456 7.27362 39.7293 7.29868C39.7131 7.32373 39.6898 7.34352 39.6623 7.35561C39.6349 7.3677 39.6045 7.37156 39.5749 7.36672C39.5452 7.36188 39.5177 7.34854 39.4956 7.32836C39.4735 7.30817 39.4578 7.28201 39.4505 7.2531C39.4432 7.22418 39.4445 7.19377 39.4544 7.16561C39.4642 7.13744 39.4821 7.11275 39.5059 7.09456C39.5297 7.07637 39.5584 7.06549 39.5883 7.06324Z" fill="#26210F"/>
<path d="M39.0534 7.55178C39.0866 7.55113 39.1197 7.557 39.1507 7.56904C39.1817 7.58109 39.21 7.59909 39.234 7.622C39.258 7.64491 39.2772 7.67229 39.2906 7.70257C39.3039 7.73286 39.3111 7.76546 39.3118 7.7985C39.3124 7.83155 39.3065 7.86441 39.2944 7.89519C39.2822 7.92597 39.2641 7.95407 39.241 7.9779C39.218 8.00173 39.1904 8.02081 39.1599 8.03406C39.1294 8.0473 39.0966 8.05445 39.0633 8.0551C39.03 8.05575 38.9969 8.04988 38.966 8.03783C38.935 8.02579 38.9066 8.00779 38.8827 7.98488C38.8587 7.96197 38.8394 7.93459 38.8261 7.90431C38.8128 7.87402 38.8056 7.84142 38.8049 7.80837C38.8043 7.77532 38.8102 7.74247 38.8223 7.71169C38.8344 7.68091 38.8526 7.6528 38.8756 7.62898C38.8987 7.60515 38.9263 7.58607 38.9568 7.57282C38.9873 7.55957 39.0201 7.55242 39.0534 7.55178Z" fill="#26210F"/>
<path d="M31.446 13.8351C31.5381 13.8332 31.6286 13.8584 31.7062 13.9075C31.7838 13.9567 31.845 14.0276 31.882 14.1113C31.919 14.195 31.9302 14.2877 31.9142 14.3777C31.8981 14.4677 31.8556 14.551 31.7919 14.617C31.7282 14.683 31.6463 14.7287 31.5564 14.7485C31.4666 14.7682 31.3728 14.7611 31.287 14.7279C31.2013 14.6948 31.1273 14.6371 31.0745 14.5622C31.0218 14.4873 30.9926 14.3986 30.9906 14.3072C30.989 14.2464 30.9996 14.186 31.0217 14.1293C31.0438 14.0726 31.077 14.0208 31.1193 13.9769C31.1617 13.9331 31.2123 13.8979 31.2684 13.8736C31.3245 13.8492 31.3849 13.8362 31.446 13.8351Z" fill="#26210F"/>
<path d="M32.8157 14.7316C33.0343 14.7316 33.2116 14.5555 33.2116 14.3384C33.2116 14.1213 33.0343 13.9453 32.8157 13.9453C32.5971 13.9453 32.4199 14.1213 32.4199 14.3384C32.4199 14.5555 32.5971 14.7316 32.8157 14.7316Z" fill="#26210F"/>
<path d="M32.5193 12.8794C32.5776 12.8781 32.6351 12.8941 32.6843 12.9252C32.7335 12.9564 32.7723 13.0014 32.7958 13.0544C32.8193 13.1075 32.8263 13.1663 32.8161 13.2234C32.8059 13.2805 32.7789 13.3333 32.7384 13.3751C32.6979 13.4169 32.6459 13.4458 32.5889 13.4582C32.5318 13.4706 32.4724 13.4659 32.4181 13.4447C32.3637 13.4235 32.3169 13.3867 32.2837 13.3391C32.2504 13.2915 32.2321 13.2351 32.2311 13.1772C32.2297 13.0998 32.2593 13.025 32.3133 12.9692C32.3673 12.9135 32.4414 12.8812 32.5193 12.8794Z" fill="#26210F"/>
<path d="M43.1162 15.6346C42.4736 16.2798 42.0169 17.0843 41.7935 17.9642C41.5701 18.8442 41.5881 19.7675 41.8458 20.6382L41.1386 18.4851C41.0044 18.0755 40.8686 17.6265 41.0226 17.2218C41.1767 16.8172 41.5891 16.5639 41.8027 16.1774C42.0843 15.6839 41.9849 15.0474 42.1953 14.5144C42.5133 13.7052 43.5203 13.3104 44.3716 13.4666C45.223 13.6229 45.9534 14.2167 46.5 14.8944L46.4867 14.9174C46.3559 14.848 46.211 14.8086 46.0629 14.8021C45.9147 14.7955 45.7669 14.822 45.6304 14.8796C45.4828 14.944 45.3533 15.0431 45.2528 15.1683C45.1524 15.2935 45.0842 15.4411 45.054 15.5984C44.9878 15.9422 45.112 16.2892 45.2014 16.6281C45.2909 16.9669 45.3455 17.3501 45.1584 17.6479C44.9 18.0607 44.3302 18.1101 43.8665 18.2499C43.4861 18.3675 43.1372 18.5684 42.8454 18.8377C42.5536 19.107 42.3263 19.4378 42.1804 19.8059C42.1688 19.8372 42.1572 19.8701 42.1472 19.9013C42.0301 18.4235 42.3867 16.9467 43.1659 15.6823L43.1162 15.6346Z" fill="#26210F"/>
<path d="M41.0392 21.4606C41.116 21.955 41.1249 22.4574 41.0657 22.9541C40.9614 22.4935 40.7261 22.0723 40.3879 21.7406C40.0497 21.4088 39.6227 21.1803 39.1577 21.0823C38.7734 21.0116 38.3759 21.0362 37.99 20.9787C37.6041 20.9211 37.2 20.7599 36.9962 20.4293C36.8306 20.1727 36.8124 19.8338 36.5921 19.6282C36.5069 19.5597 36.4082 19.5097 36.3024 19.4814C36.1966 19.4531 36.0859 19.4471 35.9776 19.4638C35.7837 19.4925 35.5947 19.5478 35.4161 19.6282C35.4871 19.2672 35.662 18.9344 35.9197 18.6702C36.1775 18.4059 36.5069 18.2217 36.868 18.1399C37.2291 18.058 37.6064 18.082 37.9541 18.209C38.3017 18.336 38.6048 18.5604 38.8264 18.8552C39.0036 19.092 39.1279 19.3716 39.3531 19.5641C39.5784 19.7565 39.85 19.8355 40.1001 19.9835C40.6218 20.2845 40.9266 20.8668 41.0392 21.4606Z" fill="#26210F"/>
<path d="M38.3941 31.4942C38.4613 31.2414 38.6057 31.0154 38.8075 30.8474C39.0093 30.6795 39.2586 30.5777 39.5211 30.5563C39.7835 30.5348 40.0462 30.5947 40.273 30.7276C40.4998 30.8605 40.6795 31.0599 40.7874 31.2985C40.8106 30.8297 40.5092 30.3872 40.1431 30.078C39.7771 29.7688 39.2852 29.5204 38.8959 29.1914C38.5067 28.8625 38.2019 28.4101 38.2467 27.9216C38.6243 28.1124 39.0748 28.1239 39.5021 28.1469C39.9758 28.1716 40.4959 28.2325 40.8388 28.5532H40.857C40.7377 27.9397 40.0951 27.5795 39.4972 27.387C38.8992 27.1946 38.2334 27.0581 37.8111 26.6008C37.3887 26.1435 37.3142 25.4642 37.3672 24.8457C37.4202 24.2273 37.5643 23.6121 37.508 22.9936C37.4516 22.3752 37.1237 21.7254 36.5324 21.5264V21.4211C37.5524 21.4324 38.5488 21.7275 39.4084 22.273C40.268 22.8185 40.9564 23.5924 41.3953 24.5069C41.8922 25.5876 42.0131 26.8097 41.9832 27.9907C41.942 29.585 41.6469 31.1627 41.1087 32.6654C40.8349 33.5911 40.4169 34.4685 39.8698 35.2659C39.6925 34.9206 39.6244 34.5301 39.6744 34.1457C39.7075 33.751 39.7953 33.3595 39.8119 32.9647C39.8476 32.5659 39.7402 32.1674 39.5088 31.8396C39.2603 31.5288 38.7966 31.3676 38.4421 31.5518L38.3941 31.4942Z" fill="#26210F"/>
<path d="M45.8159 29.0072C45.8424 29.1066 45.8409 29.2112 45.8117 29.3098C45.7825 29.4084 45.7267 29.4972 45.6503 29.5665L45.6287 29.5336C45.4217 29.1454 44.8983 29.0303 44.4693 29.1174C43.8333 29.2424 43.3 29.6948 42.9472 30.2326C42.6196 30.6954 42.3613 31.2029 42.1804 31.7393C43.0593 28.5849 43.0838 25.2559 42.2516 22.089C42.7796 22.7467 43.1866 23.4917 43.454 24.2898L43.4888 24.2783C43.1578 23.2723 43.1634 22.187 43.5046 21.1844C43.8457 20.1818 44.5043 19.3157 45.3819 18.7154H45.4002C44.9911 19.6727 45.2031 20.7715 45.3853 21.7995C45.5674 22.8275 45.6966 23.9921 45.1318 24.8885C44.6896 25.5876 43.8598 26.0646 43.6727 26.8623L43.772 26.8508C43.9527 26.5754 44.2004 26.3498 44.4923 26.1948C44.7841 26.0398 45.1106 25.9605 45.4416 25.9643V25.9741C44.828 26.5582 44.342 27.2614 44.0139 28.0401L44.0486 28.0532C44.2267 27.9763 44.4201 27.9408 44.6141 27.9494C44.808 27.958 44.9975 28.0105 45.1679 28.1028C45.3384 28.1951 45.4854 28.3249 45.5977 28.4822C45.71 28.6395 45.7846 28.8202 45.8159 29.0105V29.0072Z" fill="#26210F"/>
<path d="M16.3141 45.0248C16.4237 45.0241 16.5311 45.0558 16.6225 45.1159C16.714 45.1759 16.7854 45.2616 16.8277 45.362C16.87 45.4624 16.8814 45.5731 16.8603 45.6799C16.8392 45.7868 16.7866 45.885 16.7092 45.962C16.6318 46.0391 16.5331 46.0917 16.4256 46.1129C16.318 46.1342 16.2066 46.1233 16.1053 46.0816C16.0041 46.0398 15.9176 45.9692 15.8569 45.8785C15.7961 45.7879 15.7639 45.6814 15.7642 45.5725C15.7642 45.4275 15.8221 45.2885 15.9252 45.1858C16.0283 45.0831 16.1681 45.0252 16.3141 45.0248Z" fill="#26210F"/>
<path d="M15.3718 43.7533C15.4269 43.753 15.481 43.7689 15.527 43.7992C15.573 43.8294 15.6089 43.8726 15.6302 43.9231C15.6514 43.9737 15.6571 44.0294 15.6464 44.0831C15.6357 44.1369 15.6092 44.1863 15.5702 44.225C15.5311 44.2638 15.4814 44.2901 15.4273 44.3007C15.3732 44.3113 15.3171 44.3057 15.2662 44.2846C15.2153 44.2635 15.1718 44.2278 15.1414 44.1821C15.1109 44.1364 15.0948 44.0828 15.0952 44.028C15.0952 43.9551 15.1243 43.8853 15.1762 43.8338C15.228 43.7822 15.2984 43.7533 15.3718 43.7533Z" fill="#26210F"/>
<path d="M14.898 44.6613C14.9871 44.6616 15.074 44.6881 15.1479 44.7375C15.2217 44.7868 15.2792 44.8568 15.3131 44.9386C15.3469 45.0204 15.3556 45.1103 15.338 45.197C15.3205 45.2836 15.2774 45.3632 15.2143 45.4256C15.1513 45.488 15.071 45.5305 14.9837 45.5476C14.8963 45.5647 14.8058 45.5558 14.7236 45.5219C14.6414 45.488 14.5711 45.4306 14.5217 45.3571C14.4722 45.2835 14.4459 45.1971 14.4459 45.1087C14.4456 45.0497 14.4572 44.9913 14.4799 44.9368C14.5025 44.8823 14.5359 44.8328 14.5779 44.7912C14.62 44.7496 14.6699 44.7167 14.7249 44.6944C14.7798 44.6721 14.8387 44.6608 14.898 44.6613Z" fill="#26210F"/>
<path d="M3.99144 44.3668C4.16433 44.3668 4.30448 44.2277 4.30448 44.056C4.30448 43.8843 4.16433 43.7451 3.99144 43.7451C3.81856 43.7451 3.67841 43.8843 3.67841 44.056C3.67841 44.2277 3.81856 44.3668 3.99144 44.3668Z" fill="#26210F"/>
<path d="M3.37865 42.8174C3.42386 42.8174 3.46805 42.8307 3.50564 42.8556C3.54323 42.8806 3.57252 42.916 3.58982 42.9575C3.60712 42.999 3.61165 43.0446 3.60283 43.0886C3.59401 43.1327 3.57224 43.1731 3.54028 43.2049C3.50831 43.2366 3.46758 43.2582 3.42324 43.267C3.37891 43.2757 3.33295 43.2712 3.29118 43.2541C3.24942 43.2369 3.21372 43.2078 3.18861 43.1705C3.16349 43.1331 3.15009 43.0893 3.15009 43.0444C3.15009 43.0146 3.156 42.985 3.16748 42.9575C3.17897 42.93 3.19581 42.9049 3.21703 42.8839C3.23826 42.8628 3.26345 42.8461 3.29118 42.8347C3.31892 42.8233 3.34864 42.8174 3.37865 42.8174Z" fill="#26210F"/>
<path d="M2.98436 43.5017C3.05362 43.5013 3.12141 43.5214 3.17914 43.5595C3.23686 43.5975 3.28191 43.6517 3.30857 43.7151C3.33522 43.7786 3.34228 43.8485 3.32885 43.916C3.31542 43.9835 3.2821 44.0455 3.23313 44.0941C3.18415 44.1428 3.12173 44.1759 3.05379 44.1892C2.98584 44.2025 2.91544 44.1955 2.85151 44.169C2.78758 44.1426 2.73302 44.0978 2.69475 44.0405C2.65647 43.9832 2.63621 43.9159 2.63654 43.8471C2.63698 43.7556 2.67376 43.668 2.73889 43.6033C2.80403 43.5386 2.89225 43.5021 2.98436 43.5017Z" fill="#26210F"/>
<path d="M2.95453 38.5375C3.01581 39.3105 2.95453 40.1132 2.60505 40.8074C2.25558 41.5015 1.58478 42.0673 0.807983 42.138C1.17071 41.9949 1.29659 41.5311 1.23365 41.1511C1.17071 40.7712 0.973612 40.4126 0.902392 40.0277C0.804417 39.5334 0.907432 39.0207 1.18893 38.6016C1.47215 38.1822 1.91769 37.8877 2.19098 37.4617C2.40436 37.1241 2.49658 36.7247 2.45267 36.3284C2.72861 37.0362 2.89772 37.7806 2.95453 38.5375Z" fill="#26210F"/>
<path d="M1.55998 31.1291C1.65107 31.6061 2.10324 31.9597 2.57031 32.1291C3.0672 32.3084 3.60218 32.3446 4.10072 32.5124C4.69432 32.7157 5.20911 33.0981 5.57316 33.6062C5.75866 33.8677 5.90441 34.1572 6.08992 34.4155C6.26655 34.6815 6.52958 34.8794 6.83525 34.9764C5.6891 35.4303 4.31107 35.1408 3.33717 34.3776C2.3434 33.5963 1.73389 32.3824 1.51526 31.1356L1.55998 31.1291Z" fill="#26210F"/>
<path d="M6.23241 37.8911C6.27459 37.8914 6.31574 37.9041 6.35066 37.9276C6.38558 37.9511 6.4127 37.9844 6.42862 38.0232C6.44454 38.062 6.44854 38.1046 6.44011 38.1456C6.43167 38.1867 6.4112 38.2243 6.38125 38.2538C6.3513 38.2833 6.31323 38.3034 6.27183 38.3114C6.23043 38.3195 6.18755 38.3152 6.14861 38.2991C6.10966 38.283 6.07639 38.2558 6.05299 38.2209C6.02958 38.1861 6.01709 38.1451 6.01709 38.1032C6.01753 38.0468 6.0404 37.9928 6.08074 37.9531C6.12107 37.9134 6.17559 37.8911 6.23241 37.8911Z" fill="#26210F"/>
<path d="M6.55866 36.9585C6.73978 36.9585 6.8866 36.8126 6.8866 36.6328C6.8866 36.4529 6.73978 36.3071 6.55866 36.3071C6.37754 36.3071 6.23071 36.4529 6.23071 36.6328C6.23071 36.8126 6.37754 36.9585 6.55866 36.9585Z" fill="#26210F"/>
<path d="M5.12598 37.3564C5.52847 37.3564 5.85475 37.0324 5.85475 36.6327C5.85475 36.233 5.52847 35.909 5.12598 35.909C4.7235 35.909 4.39722 36.233 4.39722 36.6327C4.39722 37.0324 4.7235 37.3564 5.12598 37.3564Z" fill="#26210F"/>
<path d="M14.0434 46.1219C18.3856 47.6829 23.1214 47.7984 27.5355 46.4508C30.257 45.5978 32.7762 44.2062 34.9414 42.3599C37.1065 40.5137 38.8726 38.2509 40.1332 35.7083C41.8805 32.1081 42.5511 28.0856 42.0655 24.1182C41.5799 20.1508 39.9585 16.405 37.3937 13.3252C38.9314 15.0409 40.1671 17.0016 41.0491 19.1249C42.3743 22.343 42.8601 25.8412 42.4614 29.2953C42.0627 32.7494 40.7925 36.0477 38.7684 38.8845C38.0956 39.8265 37.3443 40.7107 36.5225 41.5278C35.7014 42.3433 34.8151 43.0914 33.8724 43.7648C31.9851 45.1182 29.879 46.1417 27.6448 46.7913C26.5315 47.1159 25.3922 47.3448 24.2395 47.4756C23.09 47.6131 21.9311 47.6555 20.7745 47.6022C18.4628 47.4892 16.187 46.9887 14.0434 46.1219Z" fill="#26210F"/>
<path d="M29.9818 7.84616C25.3072 5.90118 20.0851 5.68583 15.2641 7.23922C10.4711 8.79576 6.4101 12.0274 3.83573 16.3336C2.54635 18.4611 1.66261 20.8063 1.22874 23.2518C1.01275 24.4727 0.904678 25.7099 0.90576 26.9495C0.90576 27.5696 0.940542 28.188 0.998512 28.8065C1.05648 29.425 1.13764 30.0385 1.24695 30.6487C1.6952 33.1015 2.59346 35.4515 3.89701 37.5818C5.16572 39.73 6.55866 41.4702 8.51473 43.0443C7.5044 42.2976 6.85845 41.6117 6.00877 40.6873C5.14429 39.7667 4.37007 38.7665 3.6966 37.7002C2.33663 35.5636 1.38597 33.1959 0.89251 30.7162C0.642693 29.4768 0.511264 28.2167 0.49997 26.9528C0.492311 25.6885 0.595389 24.426 0.808039 23.1795C1.23481 20.6779 2.12312 18.2762 3.42828 16.0951C6.04521 11.756 10.2803 8.38403 15.1498 6.89873C17.5817 6.15593 20.1277 5.85122 22.6677 5.999C25.1996 6.1614 27.6794 6.78766 29.9818 7.84616Z" fill="#26210F"/>
<path d="M21.0214 15.6576C22.268 15.6576 23.2303 15.7875 23.9083 16.0474C24.5122 16.2718 25.0956 16.5469 25.6524 16.8698C25.9058 17.0146 26.1128 17.1231 26.2718 17.1988C26.4146 17.269 26.5713 17.3067 26.7306 17.309C27.0685 17.309 27.3015 16.8523 27.4295 15.9388H28.16C28.139 16.3336 28.1125 16.8057 28.0805 17.3551C28.0484 17.9044 28.0275 18.626 28.0175 19.5197C28.0065 20.4123 28.001 21.5851 28.001 23.038H27.2722C27.1867 21.9564 26.9296 20.895 26.5103 19.8931C26.1239 18.9269 25.5092 18.0672 24.7182 17.3863C23.9262 16.7221 22.9156 16.3708 21.8793 16.3994C20.8646 16.3994 20.0293 16.6796 19.3734 17.2399C18.7175 17.8003 18.389 18.581 18.3879 19.5822C18.3652 20.3438 18.5874 21.0928 19.0223 21.7205C19.5354 22.3953 20.1611 22.9778 20.8723 23.4427C21.685 24.0041 22.6738 24.6785 23.8387 25.4658C24.7822 26.0606 25.6928 26.7052 26.5666 27.3969C27.3369 28.0033 27.992 28.7413 28.5012 29.5763C29.0093 30.4596 29.2636 31.4643 29.2366 32.4811C29.2366 33.8497 28.8716 34.9808 28.1418 35.8745C27.3843 36.7881 26.3927 37.4819 25.2714 37.8828C24.0221 38.3375 22.6996 38.5616 21.3692 38.5441C20.0574 38.5441 19.0085 38.4196 18.2223 38.1707C17.5464 37.9642 16.8884 37.704 16.2546 37.3927C15.7886 37.101 15.4292 36.9557 15.1764 36.9568C14.8385 36.9568 14.6061 37.413 14.4791 38.3253H13.7503C13.7934 37.8318 13.8182 37.2463 13.8298 36.5818C13.8414 35.9172 13.8513 35.052 13.8613 33.9829C13.8712 32.9137 13.8778 31.5584 13.8778 29.9185H14.6066C14.6794 31.2252 14.9193 32.5175 15.3205 33.7641C15.6535 34.8674 16.278 35.8619 17.1291 36.6443C17.9418 37.3713 19.0256 37.7348 20.3804 37.7348C21.4846 37.7348 22.4149 37.4442 23.1712 36.863C23.9276 36.2818 24.3086 35.4101 24.3141 34.2477C24.3141 32.9592 23.8724 31.895 22.9891 31.0551C21.9316 30.0844 20.7849 29.2143 19.5639 28.4562C18.5701 27.8136 17.6398 27.1699 16.773 26.5251C15.9459 25.9251 15.2406 25.175 14.6944 24.3144C14.1586 23.4204 13.8893 22.3937 13.9176 21.3537C13.9176 20.0455 14.2488 18.9709 14.9114 18.1298C15.5966 17.2757 16.5088 16.629 17.5449 16.2629C18.6572 15.8535 19.8352 15.6484 21.0214 15.6576Z" fill="#26210F"/>
</g>
<defs>
<clipPath id="clip0_128_7352">
<rect width="46" height="47" fill="white" transform="translate(0.5 0.899994)"/>
</clipPath>
</defs>
</svg>
